# xmcd CD database file
#
# Track frame offsets:
#	150
#	14561
#	28919
#	47703
#	66169
#	78653
#	96080
#	113140
#	125515
#	147231
#	164401
#	179219
#
# Disc length: 2656 seconds
#
# Revision: 4
# Processed by: cddbd v1.5.2PL0 Copyright (c) Steve Scherf et al.
# Submitted via: CDex 1.70beta2
#
DISCID=b00a5e0c
DTITLE=Tammy Cochran - Where I Am
DYEAR=2007
DGENRE=Country
TTITLE0=So long
TTITLE1=And More
TTITLE2=Nobody's Home
TTITLE3=Gone
TTITLE4=The Ride Of Your Life
TTITLE5=Where I Am
TTITLE6=On My Side Of The World
TTITLE7=As Soon As I'm Over You
TTITLE8=In Our House
TTITLE9=High Wire
TTITLE10=Long Way Down
TTITLE11=Chemistry
EXTD=(C) and (P) 2007 by Shannachie Ent. Corp.\n# 6204\n\nFor more Information visit: www.tammychochranfans.com\n\nCreditis: Steve Turner (Drums), Dow Tomlin (Bass), Tony Harrell (Piano B3), Mike Johnson (Pedal Steel), Pete Finney (Pedal Steel), Paul Reiss
EXTD=ner (Violin), Steve Hornbeak (Background Vocals, Anita Cochran (Accoustic Guitar, Electric Guitar, Banjo, Mandolin, Background Vocals), Mark Thompson (Electric Guitar, Lap Steel, Background Vocals]\n\nProduced by Anita Cochran and Mark Thompson\n\nE
EXTD=ngineered by Mark Thompson at Sweetbriar Studio\n\nMastered by Jim DeMain at Yes Master, Nashville YEAR: 2007
EXTT0=
EXTT1=
EXTT2=
EXTT3=
EXTT4=
EXTT5=
EXTT6=
EXTT7=
EXTT8=
EXTT9=
EXTT10=
EXTT11=
PLAYORDER=
